<svg xmlns="http://www.w3.org/2000/svg" xmlns:xlink="http://www.w3.org/1999/xlink" width="2592" zoomAndPan="magnify" viewBox="0 0 1944 503.999982" height="672" preserveAspectRatio="xMidYMid meet" version="1.0"><defs><g/></defs><g fill="#e81010" fill-opacity="1"><g transform="translate(22.374566, 460.172424)"><g><path d="M 133.359375 -346.25 C 133.210938 -347.863281 133.65625 -349.28125 134.6875 -350.5 C 135.71875 -351.726562 137.035156 -352.414062 138.640625 -352.5625 L 182.515625 -356.46875 C 184.117188 -356.613281 185.53125 -356.171875 186.75 -355.140625 C 187.976562 -354.117188 188.664062 -352.800781 188.8125 -351.1875 L 217.890625 -25.28125 C 218.035156 -23.664062 217.59375 -22.242188 216.5625 -21.015625 C 215.539062 -19.796875 214.226562 -19.113281 212.625 -18.96875 L 162 -14.453125 C 158.78125 -14.160156 156.546875 -15.582031 155.296875 -18.71875 L 65.234375 -216.734375 C 64.828125 -217.660156 64.226562 -218.007812 63.4375 -217.78125 C 62.644531 -217.550781 62.289062 -216.957031 62.375 -216 L 80.96875 -13.0625 C 81.113281 -11.445312 80.671875 -10.023438 79.640625 -8.796875 C 78.617188 -7.578125 77.304688 -6.894531 75.703125 -6.75 L 31.828125 -2.84375 C 30.222656 -2.695312 28.804688 -3.132812 27.578125 -4.15625 C 26.347656 -5.1875 25.660156 -6.507812 25.515625 -8.125 L -3.5625 -334.03125 C -3.707031 -335.644531 -3.265625 -337.0625 -2.234375 -338.28125 C -1.203125 -339.507812 0.113281 -340.195312 1.71875 -340.34375 L 51.375 -344.765625 C 54.582031 -345.054688 56.8125 -343.632812 58.0625 -340.5 L 148.484375 -143.984375 C 148.898438 -143.046875 149.5 -142.691406 150.28125 -142.921875 C 151.070312 -143.160156 151.425781 -143.765625 151.34375 -144.734375 Z M 133.359375 -346.25 "/></g></g></g><g fill="#e81010" fill-opacity="1"><g transform="translate(262.306568, 438.919253)"><g><path d="M 175.359375 -308.3125 C 175.460938 -306.707031 174.988281 -305.300781 173.9375 -304.09375 C 172.882812 -302.894531 171.550781 -302.242188 169.9375 -302.140625 L 65.59375 -295.328125 C 64 -295.222656 63.253906 -294.367188 63.359375 -292.765625 L 69.328125 -201.46875 C 69.429688 -199.851562 70.28125 -199.097656 71.875 -199.203125 L 133.71875 -203.234375 C 135.332031 -203.347656 136.738281 -202.878906 137.9375 -201.828125 C 139.132812 -200.773438 139.785156 -199.441406 139.890625 -197.828125 L 142.3125 -160.640625 C 142.414062 -159.035156 141.941406 -157.628906 140.890625 -156.421875 C 139.847656 -155.222656 138.519531 -154.566406 136.90625 -154.453125 L 75.0625 -150.421875 C 73.46875 -150.316406 72.722656 -149.457031 72.828125 -147.84375 L 78.8125 -56.078125 C 78.914062 -54.460938 79.765625 -53.707031 81.359375 -53.8125 L 185.703125 -60.625 C 187.316406 -60.726562 188.722656 -60.253906 189.921875 -59.203125 C 191.117188 -58.148438 191.769531 -56.816406 191.875 -55.203125 L 194.28125 -18.5 C 194.382812 -16.894531 193.910156 -15.488281 192.859375 -14.28125 C 191.804688 -13.082031 190.472656 -12.429688 188.859375 -12.328125 L 31.890625 -2.078125 C 30.273438 -1.972656 28.863281 -2.445312 27.65625 -3.5 C 26.457031 -4.5625 25.804688 -5.894531 25.703125 -7.5 L 4.390625 -334.015625 C 4.285156 -335.628906 4.757812 -337.035156 5.8125 -338.234375 C 6.863281 -339.441406 8.195312 -340.097656 9.8125 -340.203125 L 166.78125 -350.453125 C 168.394531 -350.554688 169.800781 -350.078125 171 -349.015625 C 172.207031 -347.960938 172.863281 -346.628906 172.96875 -345.015625 Z M 175.359375 -308.3125 "/></g></g></g><g fill="#e81010" fill-opacity="1"><g transform="translate(467.093109, 424.702574)"><g><path d="M 82.234375 -3.078125 C 78.367188 -2.929688 76.207031 -4.628906 75.75 -8.171875 L -0.828125 -332.75 L -1.375 -334.671875 C -1.488281 -337.578125 0.222656 -339.09375 3.765625 -339.21875 L 50.203125 -340.96875 C 54.078125 -341.101562 56.242188 -339.40625 56.703125 -335.875 L 98.109375 -135.4375 C 98.460938 -134.476562 98.960938 -134.007812 99.609375 -134.03125 C 100.253906 -134.050781 100.722656 -134.554688 101.015625 -135.546875 L 123.9375 -338.390625 C 124.125 -341.953125 126.15625 -343.804688 130.03125 -343.953125 L 168.71875 -345.390625 C 172.59375 -345.535156 174.757812 -343.835938 175.21875 -340.296875 L 215.65625 -139.828125 C 216.007812 -138.867188 216.507812 -138.398438 217.15625 -138.421875 C 217.800781 -138.453125 218.269531 -138.957031 218.5625 -139.9375 L 241.484375 -342.78125 C 241.671875 -346.34375 243.695312 -348.195312 247.5625 -348.34375 L 292.546875 -350.03125 C 296.742188 -350.1875 298.597656 -348.15625 298.109375 -343.9375 L 248.921875 -14.640625 C 248.734375 -11.078125 246.703125 -9.222656 242.828125 -9.078125 L 201.71875 -7.546875 C 197.84375 -7.398438 195.675781 -9.097656 195.21875 -12.640625 L 155.125 -217 C 154.75 -218.269531 154.238281 -218.890625 153.59375 -218.859375 C 152.945312 -218.835938 152.488281 -218.179688 152.21875 -216.890625 L 129.921875 -10.203125 C 129.734375 -6.628906 127.703125 -4.769531 123.828125 -4.625 Z M 82.234375 -3.078125 "/></g></g></g><g fill="#e81010" fill-opacity="1"><g transform="translate(783.580829, 413.616581)"><g><path d="M 191.578125 -298.203125 C 191.597656 -296.585938 191.046875 -295.207031 189.921875 -294.0625 C 188.804688 -292.925781 187.441406 -292.347656 185.828125 -292.328125 L 81.765625 -291.28125 C 80.160156 -291.257812 79.367188 -290.441406 79.390625 -288.828125 L 80.3125 -197.34375 C 80.332031 -195.726562 81.144531 -194.929688 82.75 -194.953125 L 144.21875 -195.578125 C 145.832031 -195.585938 147.207031 -195.03125 148.34375 -193.90625 C 149.488281 -192.789062 150.066406 -191.425781 150.078125 -189.8125 L 150.453125 -152.546875 C 150.472656 -150.929688 149.921875 -149.550781 148.796875 -148.40625 C 147.679688 -147.269531 146.316406 -146.695312 144.703125 -146.6875 L 83.234375 -146.0625 C 81.628906 -146.039062 80.835938 -145.222656 80.859375 -143.609375 L 82.234375 -6.640625 C 82.253906 -5.023438 81.703125 -3.644531 80.578125 -2.5 C 79.460938 -1.363281 78.097656 -0.785156 76.484375 -0.765625 L 31.953125 -0.328125 C 30.335938 -0.304688 28.957031 -0.851562 27.8125 -1.96875 C 26.675781 -3.09375 26.097656 -4.460938 26.078125 -6.078125 L 22.78125 -333.28125 C 22.757812 -334.894531 23.304688 -336.269531 24.421875 -337.40625 C 25.546875 -338.550781 26.914062 -339.132812 28.53125 -339.15625 L 185.34375 -340.734375 C 186.957031 -340.753906 188.332031 -340.203125 189.46875 -339.078125 C 190.613281 -337.960938 191.195312 -336.597656 191.21875 -334.984375 Z M 191.578125 -298.203125 "/></g></g></g><g fill="#e81010" fill-opacity="1"><g transform="translate(980.449591, 411.58481)"><g><path d="M 31.953125 0.34375 C 30.335938 0.332031 28.96875 -0.242188 27.84375 -1.390625 C 26.726562 -2.535156 26.179688 -3.914062 26.203125 -5.53125 L 29.75 -332.734375 C 29.769531 -334.347656 30.347656 -335.710938 31.484375 -336.828125 C 32.628906 -337.941406 34.007812 -338.492188 35.625 -338.484375 L 80.15625 -338 C 81.769531 -337.976562 83.132812 -337.394531 84.25 -336.25 C 85.375 -335.113281 85.925781 -333.738281 85.90625 -332.125 L 82.84375 -49.9375 C 82.832031 -48.320312 83.628906 -47.503906 85.234375 -47.484375 L 189.78125 -46.359375 C 191.394531 -46.335938 192.757812 -45.753906 193.875 -44.609375 C 194.988281 -43.472656 195.539062 -42.097656 195.53125 -40.484375 L 195.125 -3.703125 C 195.101562 -2.085938 194.519531 -0.722656 193.375 0.390625 C 192.238281 1.515625 190.863281 2.066406 189.25 2.046875 Z M 31.953125 0.34375 "/></g></g></g><g fill="#e81010" fill-opacity="1"><g transform="translate(1178.227893, 414.081508)"><g><path d="M 31.9375 0.859375 C 30.320312 0.816406 28.960938 0.21875 27.859375 -0.9375 C 26.765625 -2.101562 26.238281 -3.492188 26.28125 -5.109375 L 35.109375 -332.203125 C 35.160156 -333.816406 35.765625 -335.171875 36.921875 -336.265625 C 38.078125 -337.367188 39.460938 -337.898438 41.078125 -337.859375 L 85.59375 -336.65625 C 87.207031 -336.613281 88.566406 -336.007812 89.671875 -334.84375 C 90.773438 -333.6875 91.300781 -332.300781 91.25 -330.6875 L 82.421875 -3.59375 C 82.378906 -1.976562 81.773438 -0.625 80.609375 0.46875 C 79.453125 1.570312 78.066406 2.101562 76.453125 2.0625 Z M 31.9375 0.859375 "/></g></g></g><g fill="#e81010" fill-opacity="1"><g transform="translate(1283.350311, 416.407734)"><g><path d="M 111.046875 8.796875 C 83.648438 7.578125 62.015625 -1.695312 46.140625 -19.03125 C 30.273438 -36.375 22.945312 -58.742188 24.15625 -86.140625 L 31.453125 -251.0625 C 32.679688 -278.78125 41.957031 -300.410156 59.28125 -315.953125 C 76.601562 -331.503906 98.960938 -338.671875 126.359375 -337.453125 C 154.085938 -336.222656 175.972656 -327.097656 192.015625 -310.078125 C 208.066406 -293.054688 215.476562 -270.6875 214.25 -242.96875 L 214 -237.15625 C 213.925781 -235.550781 213.296875 -234.128906 212.109375 -232.890625 C 210.921875 -231.648438 209.519531 -231.0625 207.90625 -231.125 L 162.859375 -231.1875 C 158.992188 -231.351562 157.144531 -233.375 157.3125 -237.25 L 157.84375 -249.328125 C 158.34375 -260.617188 155.523438 -269.953125 149.390625 -277.328125 C 143.253906 -284.703125 134.863281 -288.625 124.21875 -289.09375 C 113.90625 -289.550781 105.367188 -286.378906 98.609375 -279.578125 C 91.847656 -272.773438 88.21875 -263.726562 87.71875 -252.4375 L 80.0625 -79.328125 C 79.5625 -68.035156 82.378906 -58.695312 88.515625 -51.3125 C 94.648438 -43.9375 102.875 -40.019531 113.1875 -39.5625 C 123.832031 -39.09375 132.535156 -42.257812 139.296875 -49.0625 C 146.054688 -55.875 149.6875 -64.925781 150.1875 -76.21875 L 150.71875 -88.296875 C 150.789062 -89.910156 151.414062 -91.257812 152.59375 -92.34375 C 153.769531 -93.425781 155.164062 -93.929688 156.78125 -93.859375 L 201.65625 -89.921875 C 203.269531 -89.859375 204.617188 -89.234375 205.703125 -88.046875 C 206.785156 -86.867188 207.289062 -85.472656 207.21875 -83.859375 L 206.953125 -78.046875 C 205.742188 -50.648438 196.390625 -29.019531 178.890625 -13.15625 C 161.390625 2.707031 138.773438 10.023438 111.046875 8.796875 Z M 111.046875 8.796875 "/></g></g></g><g fill="#e81010" fill-opacity="1"><g transform="translate(1499.854311, 425.876162)"><g><path d="M 31.875 2.171875 C 30.269531 2.054688 28.941406 1.394531 27.890625 0.1875 C 26.835938 -1.019531 26.363281 -2.425781 26.46875 -4.03125 L 48.640625 -330.5 C 48.753906 -332.113281 49.410156 -333.441406 50.609375 -334.484375 C 51.816406 -335.535156 53.222656 -336.003906 54.828125 -335.890625 L 99.265625 -332.875 C 100.867188 -332.769531 102.195312 -332.113281 103.25 -330.90625 C 104.3125 -329.707031 104.785156 -328.300781 104.671875 -326.6875 L 95.625 -193.40625 C 95.53125 -192.113281 95.800781 -191.363281 96.4375 -191.15625 C 97.070312 -190.957031 97.738281 -191.320312 98.4375 -192.25 L 180.09375 -323.03125 C 181.894531 -325.8125 184.410156 -327.09375 187.640625 -326.875 L 235.453125 -323.640625 C 237.703125 -323.484375 239.101562 -322.738281 239.65625 -321.40625 C 240.21875 -320.070312 239.953125 -318.472656 238.859375 -316.609375 L 157.203125 -185.828125 C 156.796875 -184.554688 156.566406 -183.601562 156.515625 -182.96875 L 222.125 8.28125 C 222.40625 8.945312 222.503906 9.925781 222.421875 11.21875 C 222.242188 13.789062 220.546875 14.96875 217.328125 14.75 L 169.515625 11.515625 C 165.972656 11.273438 163.816406 9.671875 163.046875 6.703125 L 115.53125 -136.734375 C 115.28125 -137.722656 114.828125 -138.160156 114.171875 -138.046875 C 113.523438 -137.929688 112.851562 -137.570312 112.15625 -136.96875 L 90.65625 -105.921875 C 89.914062 -104.671875 89.523438 -103.722656 89.484375 -103.078125 L 82.5 -0.21875 C 82.394531 1.382812 81.738281 2.710938 80.53125 3.765625 C 79.320312 4.816406 77.914062 5.289062 76.3125 5.1875 Z M 31.875 2.171875 "/></g></g></g><g fill="#e81010" fill-opacity="1"><g transform="translate(1725.828793, 441.294341)"><g><path d="M 105.234375 13.46875 C 78.554688 11.039062 57.75 1.050781 42.8125 -16.5 C 27.882812 -34.0625 21.609375 -55.863281 23.984375 -81.90625 L 25.125 -94.4375 C 25.269531 -96.039062 25.957031 -97.351562 27.1875 -98.375 C 28.414062 -99.40625 29.832031 -99.847656 31.4375 -99.703125 L 75.296875 -95.703125 C 76.910156 -95.554688 78.226562 -94.867188 79.25 -93.640625 C 80.269531 -92.410156 80.707031 -90.992188 80.5625 -89.390625 L 79.6875 -79.734375 C 78.539062 -67.203125 80.75 -56.796875 86.3125 -48.515625 C 91.875 -40.234375 99.640625 -35.640625 109.609375 -34.734375 C 119.566406 -33.828125 128.085938 -36.691406 135.171875 -43.328125 C 142.265625 -49.972656 146.351562 -59.25 147.4375 -71.15625 C 148.195312 -79.5 147.085938 -86.882812 144.109375 -93.3125 C 141.140625 -99.75 136.6875 -105.988281 130.75 -112.03125 C 124.8125 -118.082031 115.238281 -126.894531 102.03125 -138.46875 C 87.019531 -151.5 75.023438 -162.957031 66.046875 -172.84375 C 57.078125 -182.738281 49.875 -194.332031 44.4375 -207.625 C 39 -220.914062 37.039062 -235.914062 38.5625 -252.625 C 40.988281 -279.3125 50.953125 -299.796875 68.453125 -314.078125 C 85.953125 -328.359375 107.882812 -334.300781 134.25 -331.90625 C 160.914062 -329.46875 181.691406 -319.226562 196.578125 -301.1875 C 211.460938 -283.144531 217.660156 -260.46875 215.171875 -233.15625 L 214.125 -221.578125 C 213.976562 -219.972656 213.289062 -218.660156 212.0625 -217.640625 C 210.832031 -216.617188 209.410156 -216.179688 207.796875 -216.328125 L 164.421875 -220.265625 C 162.816406 -220.421875 161.5 -221.109375 160.46875 -222.328125 C 159.445312 -223.554688 159.007812 -224.972656 159.15625 -226.578125 L 160.296875 -239.125 C 161.429688 -251.65625 159.207031 -261.984375 153.625 -270.109375 C 148.050781 -278.234375 140.128906 -282.765625 129.859375 -283.703125 C 120.203125 -284.578125 112.007812 -281.835938 105.28125 -275.484375 C 98.550781 -269.140625 94.628906 -259.851562 93.515625 -247.625 C 92.460938 -236.0625 94.863281 -225.960938 100.71875 -217.328125 C 106.570312 -208.703125 118.492188 -196.4375 136.484375 -180.53125 C 154.785156 -164.289062 168.5 -151.132812 177.625 -141.0625 C 186.757812 -130.988281 193.554688 -120.238281 198.015625 -108.8125 C 202.484375 -97.394531 204.03125 -84.132812 202.65625 -69.03125 C 200.164062 -41.71875 189.972656 -20.53125 172.078125 -5.46875 C 154.179688 9.59375 131.898438 15.90625 105.234375 13.46875 Z M 105.234375 13.46875 "/></g></g></g></svg>